<svg width="674" height="358" viewBox="0 0 674 358" fill="none" xmlns="http://www.w3.org/2000/svg">
<rect width="674" height="358" fill="#F5F5F5"/>
<rect id="Rectangle 1" width="674" height="358" fill="#EBCBAE"/>
<rect id="Rectangle 2" x="30" y="30" width="134" height="289" fill="#D3F9D8"/>
<rect id="Rectangle 4" x="193" y="30" width="134" height="289" fill="#D3F9D8"/>
<rect id="Rectangle 5" x="357" y="30" width="134" height="289" fill="#D3F9D8"/>
<rect id="Rectangle 6" x="512" y="30" width="134" height="289" fill="#D3F9D8"/>
<g id="s1">
<path id="s1" class="sensor_bg" d="M124 86.5C124 101.136 112.136 113 97.5 113C82.8645 113 71 101.136 71 86.5C71 71.8645 82.8645 60 97.5 60C112.136 60 124 71.8645 124 86.5Z" fill="#D9D9D9"/>
<path id="1" d="M98.9645 82.0909V93H97.6435V83.4759H97.5795L94.9162 85.2443V83.902L97.6435 82.0909H98.9645Z" fill="black"/>
</g>
<g id="s2">
<path id="s2" class="sensor_bg" d="M124 260.5C124 275.136 112.136 287 97.5 287C82.8645 287 71 275.136 71 260.5C71 245.864 82.8645 234 97.5 234C112.136 234 124 245.864 124 260.5Z" fill="#D9D9D9"/>
<path id="2" d="M95.1293 267V266.041L98.7301 262.099C99.1527 261.638 99.5007 261.237 99.7741 260.896C100.048 260.551 100.25 260.228 100.381 259.926C100.516 259.621 100.584 259.301 100.584 258.967C100.584 258.584 100.491 258.252 100.307 257.971C100.126 257.691 99.8771 257.474 99.5611 257.321C99.245 257.169 98.8899 257.092 98.4957 257.092C98.0767 257.092 97.7109 257.179 97.3984 257.353C97.0895 257.524 96.8498 257.763 96.6793 258.072C96.5124 258.381 96.429 258.744 96.429 259.159H95.1719C95.1719 258.52 95.3192 257.959 95.614 257.476C95.9087 256.993 96.31 256.616 96.8178 256.347C97.3292 256.077 97.9027 255.942 98.5384 255.942C99.1776 255.942 99.744 256.077 100.238 256.347C100.731 256.616 101.118 256.98 101.399 257.439C101.679 257.897 101.82 258.406 101.82 258.967C101.82 259.369 101.747 259.761 101.601 260.145C101.459 260.525 101.211 260.949 100.855 261.418C100.504 261.883 100.016 262.451 99.3906 263.122L96.9403 265.743V265.828H102.011V267H95.1293Z" fill="black"/>
</g>
<g id="s4">
<path id="s4" class="sensor_bg" d="M287 260.5C287 275.136 275.136 287 260.5 287C245.864 287 234 275.136 234 260.5C234 245.864 245.864 234 260.5 234C275.136 234 287 245.864 287 260.5Z" fill="#D9D9D9"/>
<path id="3" d="M257.874 264.763V263.676L262.668 256.091H263.456V257.774H262.923L259.301 263.506V263.591H265.757V264.763H257.874ZM263.009 267V264.433V263.926V256.091H264.266V267H263.009Z" fill="black"/>
</g>
<g id="s3">
<path id="s3" class="sensor_bg" d="M291 86.5C291 101.136 279.136 113 264.5 113C249.864 113 238 101.136 238 86.5C238 71.8645 249.864 60 264.5 60C279.136 60 291 71.8645 291 86.5Z" fill="#D9D9D9"/>
<path id="4" d="M265.815 93.1491C265.112 93.1491 264.485 93.0284 263.935 92.7869C263.388 92.5455 262.953 92.2099 262.63 91.7802C262.31 91.3469 262.136 90.8445 262.108 90.2727H263.45C263.479 90.6243 263.599 90.9279 263.812 91.1836C264.026 91.4357 264.304 91.631 264.649 91.7695C264.993 91.908 265.375 91.9773 265.794 91.9773C266.263 91.9773 266.678 91.8956 267.04 91.7322C267.403 91.5689 267.687 91.3416 267.893 91.0504C268.099 90.7592 268.202 90.4219 268.202 90.0384C268.202 89.6371 268.102 89.2837 267.903 88.9783C267.705 88.6694 267.413 88.4279 267.03 88.2539C266.646 88.0799 266.178 87.9929 265.624 87.9929H264.75V86.821H265.624C266.057 86.821 266.437 86.7429 266.763 86.5866C267.094 86.4304 267.351 86.2102 267.536 85.9261C267.724 85.642 267.818 85.3082 267.818 84.9247C267.818 84.5554 267.737 84.234 267.573 83.9606C267.41 83.6871 267.179 83.4741 266.881 83.3214C266.586 83.1687 266.238 83.0923 265.837 83.0923C265.46 83.0923 265.105 83.1616 264.771 83.3001C264.441 83.435 264.171 83.6321 263.962 83.8913C263.752 84.147 263.638 84.456 263.621 84.8182H262.342C262.364 84.2464 262.536 83.7457 262.859 83.3161C263.182 82.8828 263.605 82.5455 264.127 82.304C264.652 82.0625 265.229 81.9418 265.858 81.9418C266.533 81.9418 267.112 82.0785 267.594 82.3519C268.077 82.6218 268.449 82.9787 268.708 83.4226C268.967 83.8665 269.097 84.3459 269.097 84.8608C269.097 85.4751 268.935 85.9989 268.612 86.4322C268.292 86.8654 267.857 87.1655 267.307 87.3324V87.4176C267.996 87.5312 268.534 87.8242 268.921 88.2965C269.308 88.7653 269.501 89.3459 269.501 90.0384C269.501 90.6314 269.34 91.1641 269.017 91.6364C268.697 92.1051 268.26 92.4744 267.706 92.7443C267.152 93.0142 266.522 93.1491 265.815 93.1491Z" fill="black"/>
</g>
<g id="s5">
<path id="s5" class="sensor_bg" d="M451 86.5C451 101.136 439.136 113 424.5 113C409.864 113 398 101.136 398 86.5C398 71.8645 409.864 60 424.5 60C439.136 60 451 71.8645 451 86.5Z" fill="#D9D9D9"/>
<path id="5" d="M425.538 93.1491C424.913 93.1491 424.35 93.0249 423.85 92.7763C423.349 92.5277 422.948 92.1868 422.646 91.7536C422.344 91.3203 422.179 90.8267 422.151 90.2727H423.429C423.479 90.7663 423.702 91.1747 424.1 91.4979C424.501 91.8175 424.981 91.9773 425.538 91.9773C425.986 91.9773 426.384 91.8725 426.732 91.663C427.083 91.4535 427.358 91.1658 427.557 90.8001C427.76 90.4308 427.861 90.0135 427.861 89.5483C427.861 89.0724 427.756 88.6481 427.547 88.2752C427.341 87.8988 427.056 87.6023 426.694 87.3857C426.332 87.169 425.918 87.0589 425.453 87.0554C425.119 87.0518 424.777 87.1033 424.425 87.2099C424.074 87.3129 423.784 87.446 423.557 87.6094L422.321 87.4602L422.982 82.0909H428.649V83.2628H424.089L423.706 86.4801H423.77C423.994 86.3026 424.274 86.1552 424.612 86.038C424.949 85.9208 425.3 85.8622 425.666 85.8622C426.334 85.8622 426.929 86.022 427.451 86.3416C427.976 86.6577 428.388 87.0909 428.686 87.6413C428.988 88.1918 429.139 88.8203 429.139 89.527C429.139 90.223 428.983 90.8445 428.67 91.3913C428.362 91.9347 427.935 92.3643 427.392 92.6804C426.849 92.9929 426.231 93.1491 425.538 93.1491Z" fill="black"/>
</g>
<g id="s6">
<path id="s6" class="sensor_bg" d="M451 260.5C451 275.136 439.136 287 424.5 287C409.864 287 398 275.136 398 260.5C398 245.864 409.864 234 424.5 234C439.136 234 451 245.864 451 260.5Z" fill="#D9D9D9"/>
<path id="6" d="M425.751 267.149C425.304 267.142 424.857 267.057 424.409 266.893C423.962 266.73 423.553 266.455 423.184 266.068C422.815 265.677 422.518 265.15 422.294 264.486C422.071 263.818 421.959 262.98 421.959 261.972C421.959 261.006 422.049 260.15 422.23 259.404C422.412 258.655 422.674 258.025 423.019 257.513C423.363 256.998 423.779 256.608 424.265 256.341C424.755 256.075 425.308 255.942 425.922 255.942C426.533 255.942 427.076 256.064 427.552 256.309C428.031 256.551 428.422 256.888 428.724 257.321C429.026 257.755 429.221 258.254 429.31 258.818H428.01C427.889 258.328 427.655 257.922 427.307 257.598C426.959 257.275 426.497 257.114 425.922 257.114C425.077 257.114 424.411 257.481 423.924 258.216C423.441 258.951 423.198 259.983 423.195 261.311H423.28C423.479 261.009 423.715 260.752 423.988 260.539C424.265 260.322 424.571 260.155 424.904 260.038C425.238 259.921 425.592 259.862 425.964 259.862C426.589 259.862 427.161 260.018 427.68 260.331C428.198 260.64 428.614 261.068 428.926 261.615C429.239 262.158 429.395 262.781 429.395 263.484C429.395 264.159 429.244 264.777 428.942 265.338C428.64 265.896 428.216 266.339 427.669 266.67C427.126 266.996 426.487 267.156 425.751 267.149ZM425.751 265.977C426.199 265.977 426.6 265.865 426.955 265.642C427.314 265.418 427.596 265.118 427.802 264.741C428.012 264.365 428.116 263.946 428.116 263.484C428.116 263.033 428.015 262.623 427.813 262.254C427.614 261.881 427.339 261.585 426.987 261.364C426.639 261.144 426.241 261.034 425.794 261.034C425.457 261.034 425.142 261.102 424.851 261.237C424.56 261.368 424.304 261.549 424.084 261.78C423.868 262.011 423.697 262.275 423.573 262.574C423.449 262.868 423.386 263.179 423.386 263.506C423.386 263.939 423.488 264.344 423.69 264.72C423.896 265.097 424.176 265.4 424.532 265.631C424.89 265.862 425.297 265.977 425.751 265.977Z" fill="black"/>
</g>
<g id="s8">
<path id="s8" class="sensor_bg" d="M603 260.5C603 275.136 591.136 287 576.5 287C561.864 287 550 275.136 550 260.5C550 245.864 561.864 234 576.5 234C591.136 234 603 245.864 603 260.5Z" fill="#D9D9D9"/>
<path id="8" d="M577.624 267.149C576.892 267.149 576.246 267.02 575.685 266.76C575.127 266.498 574.692 266.137 574.38 265.679C574.067 265.217 573.913 264.692 573.916 264.102C573.913 263.641 574.003 263.214 574.188 262.824C574.373 262.43 574.625 262.101 574.944 261.838C575.267 261.572 575.628 261.403 576.026 261.332V261.268C575.504 261.134 575.088 260.841 574.779 260.39C574.47 259.935 574.317 259.418 574.321 258.839C574.317 258.286 574.458 257.79 574.742 257.353C575.026 256.917 575.417 256.572 575.914 256.32C576.414 256.068 576.984 255.942 577.624 255.942C578.256 255.942 578.82 256.068 579.317 256.32C579.815 256.572 580.205 256.917 580.489 257.353C580.777 257.79 580.923 258.286 580.926 258.839C580.923 259.418 580.765 259.935 580.452 260.39C580.143 260.841 579.733 261.134 579.222 261.268V261.332C579.616 261.403 579.971 261.572 580.287 261.838C580.603 262.101 580.855 262.43 581.043 262.824C581.232 263.214 581.327 263.641 581.331 264.102C581.327 264.692 581.168 265.217 580.852 265.679C580.539 266.137 580.104 266.498 579.547 266.76C578.993 267.02 578.352 267.149 577.624 267.149ZM577.624 265.977C578.117 265.977 578.543 265.897 578.902 265.738C579.261 265.578 579.538 265.352 579.733 265.061C579.928 264.77 580.028 264.429 580.031 264.038C580.028 263.626 579.921 263.262 579.712 262.946C579.502 262.63 579.216 262.382 578.854 262.201C578.495 262.02 578.085 261.929 577.624 261.929C577.158 261.929 576.743 262.02 576.377 262.201C576.015 262.382 575.729 262.63 575.52 262.946C575.314 263.262 575.212 263.626 575.216 264.038C575.212 264.429 575.306 264.77 575.498 265.061C575.694 265.352 575.972 265.578 576.335 265.738C576.697 265.897 577.126 265.977 577.624 265.977ZM577.624 260.8C578.014 260.8 578.36 260.722 578.662 260.565C578.968 260.409 579.207 260.191 579.381 259.91C579.555 259.63 579.644 259.301 579.648 258.925C579.644 258.555 579.557 258.234 579.387 257.961C579.216 257.684 578.98 257.471 578.678 257.321C578.376 257.169 578.025 257.092 577.624 257.092C577.215 257.092 576.858 257.169 576.553 257.321C576.248 257.471 576.011 257.684 575.844 257.961C575.678 258.234 575.596 258.555 575.599 258.925C575.596 259.301 575.679 259.63 575.85 259.91C576.024 260.191 576.263 260.409 576.569 260.565C576.874 260.722 577.226 260.8 577.624 260.8Z" fill="black"/>
</g>
<g id="s7">
<path id="s7" class="sensor_bg" d="M606 86.5C606 101.136 594.136 113 579.5 113C564.864 113 553 101.136 553 86.5C553 71.8645 564.864 60 579.5 60C594.136 60 606 71.8645 606 86.5Z" fill="#D9D9D9"/>
<path id="7" d="M577.47 93L582.349 83.348V83.2628H576.724V82.0909H583.713V83.3267L578.855 93H577.47Z" fill="black"/>
</g>
</svg>
