<svg width="674" height="358" viewBox="0 0 674 358" fill="none" xmlns="http://www.w3.org/2000/svg">
<rect width="674" height="358" fill="#F5F5F5"/>
<g id="gh_1 1" clip-path="url(#clip0_0_1)">
<path id="Vector" d="M674 0H0V358H674V0Z" fill="#F5F5F5"/>
<path id="Rectangle 1" d="M674 0H0V358H674V0Z" fill="#EBCBAE"/>
<path id="Rectangle 2" d="M164 30H30V319H164V30Z" fill="#D3F9D8"/>
<path id="Rectangle 4" d="M400 30H201V183H400V30Z" fill="#D3F9D8"/>
<path id="Rectangle 6" d="M638 30H437V183H638V30Z" fill="#D3F9D8"/>
<path id="Rectangle 5" d="M638 203H201V319H638V203Z" fill="#D3F9D8"/>
<g id="s1">
<path id="s1" class="sensor_bg" d="M124 97.5C124 112.136 112.136 124 97.5 124C82.8645 124 71 112.136 71 97.5C71 82.8645 82.8645 71 97.5 71C112.136 71 124 82.8645 124 97.5Z" fill="#D9D9D9"/>
<path id="1" d="M98.9645 93.0909V104H97.6435V94.4759H97.5795L94.9162 96.2443V94.902L97.6435 93.0909H98.9645Z" fill="black"/>
</g>
<g id="s2">
<path id="s2" class="sensor_bg" d="M126 261.5C126 276.136 114.136 288 99.5 288C84.8645 288 73 276.136 73 261.5C73 246.864 84.8645 235 99.5 235C114.136 235 126 246.864 126 261.5Z" fill="#D9D9D9"/>
<path id="2" d="M97.1293 268V267.041L100.73 263.099C101.153 262.638 101.501 262.237 101.774 261.896C102.048 261.551 102.25 261.228 102.381 260.926C102.516 260.621 102.584 260.301 102.584 259.967C102.584 259.584 102.491 259.252 102.307 258.971C102.126 258.691 101.877 258.474 101.561 258.321C101.245 258.169 100.89 258.092 100.496 258.092C100.077 258.092 99.7109 258.179 99.3984 258.353C99.0895 258.524 98.8498 258.763 98.6793 259.072C98.5124 259.381 98.429 259.744 98.429 260.159H97.1719C97.1719 259.52 97.3192 258.959 97.614 258.476C97.9087 257.993 98.31 257.616 98.8178 257.347C99.3292 257.077 99.9027 256.942 100.538 256.942C101.178 256.942 101.744 257.077 102.238 257.347C102.731 257.616 103.118 257.98 103.399 258.439C103.679 258.897 103.82 259.406 103.82 259.967C103.82 260.369 103.747 260.761 103.601 261.145C103.459 261.525 103.211 261.949 102.855 262.418C102.504 262.883 102.016 263.451 101.391 264.122L98.9403 266.743V266.828H104.011V268H97.1293Z" fill="black"/>
</g>
<g id="s3">
<path id="s3" class="sensor_bg" d="M327 261.5C327 276.136 315.136 288 300.5 288C285.864 288 274 276.136 274 261.5C274 246.865 285.864 235 300.5 235C315.136 235 327 246.865 327 261.5Z" fill="#D9D9D9"/>
<path id="4" d="M301.815 268.149C301.112 268.149 300.485 268.028 299.935 267.787C299.388 267.546 298.953 267.21 298.63 266.78C298.31 266.347 298.136 265.844 298.108 265.273H299.45C299.479 265.624 299.599 265.928 299.812 266.184C300.026 266.436 300.304 266.631 300.649 266.77C300.993 266.908 301.375 266.977 301.794 266.977C302.263 266.977 302.678 266.896 303.04 266.732C303.403 266.569 303.687 266.342 303.893 266.05C304.099 265.759 304.202 265.422 304.202 265.038C304.202 264.637 304.102 264.284 303.903 263.978C303.705 263.669 303.413 263.428 303.03 263.254C302.646 263.08 302.178 262.993 301.624 262.993H300.75V261.821H301.624C302.057 261.821 302.437 261.743 302.763 261.587C303.094 261.43 303.351 261.21 303.536 260.926C303.724 260.642 303.818 260.308 303.818 259.925C303.818 259.555 303.737 259.234 303.573 258.961C303.41 258.687 303.179 258.474 302.881 258.321C302.586 258.169 302.238 258.092 301.837 258.092C301.46 258.092 301.105 258.162 300.771 258.3C300.441 258.435 300.171 258.632 299.962 258.891C299.752 259.147 299.638 259.456 299.621 259.818H298.342C298.364 259.246 298.536 258.746 298.859 258.316C299.182 257.883 299.605 257.546 300.127 257.304C300.652 257.063 301.229 256.942 301.858 256.942C302.533 256.942 303.112 257.078 303.594 257.352C304.077 257.622 304.449 257.979 304.708 258.423C304.967 258.866 305.097 259.346 305.097 259.861C305.097 260.475 304.935 260.999 304.612 261.432C304.292 261.865 303.857 262.165 303.307 262.332V262.418C303.996 262.531 304.534 262.824 304.921 263.297C305.308 263.765 305.501 264.346 305.501 265.038C305.501 265.631 305.34 266.164 305.017 266.636C304.697 267.105 304.26 267.474 303.706 267.744C303.152 268.014 302.522 268.149 301.815 268.149Z" fill="black"/>
</g>
<g id="s4">
<path id="s4" class="sensor_bg" d="M564 261.5C564 276.136 552.136 288 537.5 288C522.864 288 511 276.136 511 261.5C511 246.864 522.864 235 537.5 235C552.136 235 564 246.864 564 261.5Z" fill="#D9D9D9"/>
<path id="3" d="M534.874 265.763V264.676L539.668 257.091H540.456V258.774H539.923L536.301 264.506V264.591H542.757V265.763H534.874ZM540.009 268V265.433V264.926V257.091H541.266V268H540.009Z" fill="black"/>
</g>
<g id="s5">
<path id="s5" class="sensor_bg" d="M327 99.5C327 114.136 315.136 126 300.5 126C285.864 126 274 114.136 274 99.5C274 84.8645 285.864 73 300.5 73C315.136 73 327 84.8645 327 99.5Z" fill="#D9D9D9"/>
<path id="5" d="M301.538 106.149C300.913 106.149 300.35 106.025 299.85 105.776C299.349 105.528 298.948 105.187 298.646 104.754C298.344 104.32 298.179 103.827 298.151 103.273H299.429C299.479 103.766 299.702 104.175 300.1 104.498C300.501 104.818 300.981 104.977 301.538 104.977C301.986 104.977 302.384 104.873 302.732 104.663C303.083 104.454 303.358 104.166 303.557 103.8C303.76 103.431 303.861 103.014 303.861 102.548C303.861 102.072 303.756 101.648 303.547 101.275C303.341 100.899 303.056 100.602 302.694 100.386C302.332 100.169 301.918 100.059 301.453 100.055C301.119 100.052 300.777 100.103 300.425 100.21C300.074 100.313 299.784 100.446 299.557 100.609L298.321 100.46L298.982 95.0909H304.649V96.2628H300.089L299.706 99.4801H299.77C299.994 99.3026 300.274 99.1552 300.612 99.038C300.949 98.9208 301.3 98.8622 301.666 98.8622C302.334 98.8622 302.929 99.022 303.451 99.3416C303.976 99.6577 304.388 100.091 304.686 100.641C304.988 101.192 305.139 101.82 305.139 102.527C305.139 103.223 304.983 103.844 304.67 104.391C304.362 104.935 303.935 105.364 303.392 105.68C302.849 105.993 302.231 106.149 301.538 106.149Z" fill="black"/>
</g>
<g id="s6">
<path id="s6" class="sensor_bg" d="M564 97.5C564 112.136 552.136 124 537.5 124C522.864 124 511 112.136 511 97.5C511 82.864 522.864 71 537.5 71C552.136 71 564 82.864 564 97.5Z" fill="#D9D9D9"/>
<path id="6" d="M538.751 104.149C538.304 104.142 537.857 104.057 537.409 103.893C536.962 103.73 536.553 103.455 536.184 103.068C535.815 102.677 535.518 102.15 535.294 101.486C535.071 100.818 534.959 99.98 534.959 98.972C534.959 98.006 535.049 97.15 535.23 96.404C535.412 95.655 535.674 95.025 536.019 94.513C536.363 93.998 536.779 93.608 537.265 93.341C537.755 93.075 538.308 92.942 538.922 92.942C539.533 92.942 540.076 93.064 540.552 93.309C541.031 93.551 541.422 93.888 541.724 94.321C542.026 94.755 542.221 95.254 542.31 95.818H541.01C540.889 95.328 540.655 94.922 540.307 94.598C539.959 94.275 539.497 94.114 538.922 94.114C538.077 94.114 537.411 94.481 536.924 95.216C536.441 95.951 536.198 96.983 536.195 98.311H536.28C536.479 98.009 536.715 97.752 536.988 97.539C537.265 97.322 537.571 97.155 537.904 97.038C538.238 96.921 538.592 96.862 538.964 96.862C539.589 96.862 540.161 97.018 540.68 97.331C541.198 97.64 541.614 98.068 541.926 98.615C542.239 99.158 542.395 99.781 542.395 100.484C542.395 101.159 542.244 101.777 541.942 102.338C541.64 102.896 541.216 103.339 540.669 103.67C540.126 103.996 539.487 104.156 538.751 104.149ZM538.751 102.977C539.199 102.977 539.6 102.865 539.955 102.642C540.314 102.418 540.596 102.118 540.802 101.741C541.012 101.365 541.116 100.946 541.116 100.484C541.116 100.033 541.015 99.623 540.813 99.254C540.614 98.881 540.339 98.585 539.987 98.364C539.639 98.144 539.241 98.034 538.794 98.034C538.457 98.034 538.142 98.102 537.851 98.237C537.56 98.368 537.304 98.549 537.084 98.78C536.868 99.011 536.697 99.275 536.573 99.574C536.449 99.868 536.386 100.179 536.386 100.506C536.386 100.939 536.488 101.344 536.69 101.72C536.896 102.097 537.176 102.4 537.532 102.631C537.89 102.862 538.297 102.977 538.751 102.977Z" fill="black"/>
</g>
</g>
<defs>
<clipPath id="clip0_0_1">
<rect width="674" height="358" fill="white"/>
</clipPath>
</defs>
</svg>
